<?xml version="1.0" encoding="UTF-8" standalone="no"?>
<!DOCTYPE svg PUBLIC "-//W3C//DTD SVG 1.1//EN" "http://www.w3.org/Graphics/SVG/1.1/DTD/svg11.dtd">
<svg width="100%" height="100%" viewBox="0 0 750 750" version="1.1" xmlns="http://www.w3.org/2000/svg" xmlns:xlink="http://www.w3.org/1999/xlink" xml:space="preserve" xmlns:serif="http://www.serif.com/" style="fill-rule:evenodd;clip-rule:evenodd;stroke-linejoin:round;stroke-miterlimit:2;">
    <g transform="matrix(1,0,0,1,-125,-125)">
        <g transform="matrix(0.75,0,0,0.75,125,125)">
            <path d="M500,-0C775.958,-0 1000,224.042 1000,500C1000,775.958 775.958,1000 500,1000C224.042,1000 -0,775.958 -0,500C-0,500 0.444,484 16.667,484C32.889,484 33.333,500 33.333,500C33.333,757.56 242.44,966.667 500,966.667C757.56,966.667 966.667,757.56 966.667,500C966.667,242.44 757.56,33.333 500,33.333C500,33.333 484,32.889 484,16.667C484,0.444 500,-0 500,-0Z"/>
        </g>
    </g>
</svg>
